PathFileType	4	(X/Y/Z)	C:/Users/opensim2020/Desktop/walking_exp_matlab/subject02_walking15_straight_01.trc																																																																																																																												
DataRate	CameraRate	NumFrames	NumMarkers	Units	OrigDataRate	OrigDataStartFrame	OrigNumFrames																																																																																																																								
100	100	8	42	mm	100	388	165																																																																																																																								
Frame#	Time	LFHD			RFHD			LBHD			RBHD			C7			T10			CLAV			STRN			RBAK			LSHO			LUPA			LELB			LFRM			LWRA			LWRB			LFIN			RSHO			RUPA			RELB			RFRM			RWRA			RWRB			RFIN			LASI			RASI			LPSI			RPSI			LTHI			LKNE			LTIB			LANK			LHEE			LTOE			RTHI			RKNE			RTIB			RANK			RHEE			RTOE			*39			*40			*41		
		X1	Y1	Z1	X2	Y2	Z2	X3	Y3	Z3	X4	Y4	Z4	X5	Y5	Z5	X6	Y6	Z6	X7	Y7	Z7	X8	Y8	Z8	X9	Y9	Z9	X10	Y10	Z10	X11	Y11	Z11	X12	Y12	Z12	X13	Y13	Z13	X14	Y14	Z14	X15	Y15	Z15	X16	Y16	Z16	X17	Y17	Z17	X18	Y18	Z18	X19	Y19	Z19	X20	Y20	Z20	X21	Y21	Z21	X22	Y22	Z22	X23	Y23	Z23	X24	Y24	Z24	X25	Y25	Z25	X26	Y26	Z26	X27	Y27	Z27	X28	Y28	Z28	X29	Y29	Z29	X30	Y30	Z30	X31	Y31	Z31	X32	Y32	Z32	X33	Y33	Z33	X34	Y34	Z34	X35	Y35	Z35	X36	Y36	Z36	X37	Y37	Z37	X38	Y38	Z38	X39	Y39	Z39	X40	Y40	Z40	X41	Y41	Z41	X42	Y42	Z42
																																																																																																																															
1	0	-1186.10486	1708.15698	1468.93762	-1203.78003	1694.60095	1613.14551	-1325.92993	1656.078	1449.83386	-1355.18091	1641.73389	1589.92676	-1410.00427	1518.57166	1521.81824	-1469.97778	1240.39441	1519.51001	-1273.99036	1447.02393	1511.33325	-1223.63049	1275.84827	1513.56946	-1474.7843	1339.46375	1579.3551	-1342.84619	1496.22839	1343.37451	-1347.51001	1300.31299	1252.81604	-1333.11255	1158.45227	1228.56116	-1260.12183	1044.25256	1234.81213	-1153.73047	974.15222	1286.49805	-1189.27087	946.15863	1252.98535	-1137.43066	910.05011	1251.57458	-1343.89844	1476.03162	1706.57312	-1398.01172	1293.62036	1792.13123	-1399.60913	1149.1377	1819.2804	-1377.83691	1034.01367	1850.16772	-1328.33887	907.46094	1847.6355	-1379.18835	903.56415	1867.41003	-1343.81384	843.90918	1884.14246	-1261.11646	969.07678	1375.28674	-1242.28955	969.73102	1627.64563	-1460.36243	1022.37732	1465.56311	-1458.57056	1029.78149	1581.32117	-1309.04431	652.46973	1323.61108	-1315.18555	470.99927	1339.27612	-1466.87646	365.13864	1335.70288	-1608.70813	194.75099	1356.68213	-1649.81873	191.39771	1413.1604	-1524.46362	66.87792	1332.0033	-1295.82471	674.05487	1718.39246	-1276.0752	463.23312	1690.77063	-1320.03735	280.29376	1711.10901	-1345.38428	86.87328	1686.73633	-1384.41394	29.97292	1637.87488	-1193.60388	32.12347	1695.42041	-1283.43945	1792.07263	1549.2135	2846.17334	1034.06873	-3356.81299	NaN	NaN	NaN
2	0.01	-1177.95813	1710.9231	1472.49048	-1194.80566	1696.98804	1616.51672	-1317.6377	1658.29675	1453.93445	-1346.3009	1643.78174	1594.18335	-1401.01477	1520.73938	1526.85901	-1461.09766	1242.55859	1524.8396	-1265.2251	1449.15686	1515.10205	-1215.61096	1277.71423	1516.59143	-1465.42847	1341.85522	1585.41223	-1335.78467	1498.10669	1347.76001	-1342.25867	1302.2323	1256.97583	-1329.6239	1160.55212	1232.25	-1261.57031	1043.38318	1233.47156	-1156.16382	967.87805	1278.96594	-1194.98779	942.39642	1248.03284	-1145.5481	902.89661	1242.91028	-1332.93481	1478.40771	1711.05383	-1384.4281	1295.49927	1797.85718	-1384.7533	1150.99902	1824.54468	-1362.16028	1035.89087	1854.76501	-1312.94543	909.36591	1851.33435	-1363.29138	905.55188	1872.20667	-1327.70959	845.88983	1888.24158	-1253.06482	971.58252	1378.08582	-1232.27332	971.65558	1631.96912	-1451.64246	1024.72522	1469.98584	-1449.89575	1031.22559	1585.54016	-1295.51208	656.01569	1326.61157	-1297.01965	475.18533	1342.47205	-1447.31409	368.1987	1342.02661	-1587.6062	196.36887	1364.76184	-1626.86572	191.02803	1421.46533	-1502.04895	70.30931	1336.44434	-1291.89783	674.40027	1720.86523	-1275.29419	463.19702	1692.45752	-1320.12732	280.24802	1712.03015	-1345.59875	86.78831	1686.99438	-1384.65247	30.04519	1637.87207	-1193.61243	31.88963	1695.31628	-1275.12268	1794.27356	1553.245	2846.12573	1034.31213	-3356.80908	NaN	NaN	NaN
3	0.02	-1169.59961	1712.87366	1475.88782	-1185.60864	1698.89294	1619.44189	-1309.41479	1660.17407	1457.93311	-1337.38599	1645.63257	1598.26904	-1392.01221	1522.67664	1531.73999	-1452.23596	1244.59338	1530.14478	-1255.80872	1450.98889	1518.8429	-1206.32068	1279.78857	1520.27893	-1455.78149	1343.89172	1591.30237	-1328.4585	1499.83264	1352.09766	-1337.66382	1304.34155	1260.80933	-1326.77148	1162.73645	1235.43665	-1262.95068	1043.04773	1232.55774	-1158.95508	962.0296	1272.05627	-1201.0929	938.65857	1242.9679	-1153.8927	896.62476	1234.97803	-1322.0719	1480.91431	1715.49536	-1370.76611	1297.34058	1803.41492	-1369.76062	1152.81238	1829.65869	-1346.46423	1037.83704	1859.40491	-1297.30225	911.16864	1854.70874	-1347.39429	907.72736	1876.94482	-1310.47961	847.21857	1891.2572	-1243.80493	974.55566	1381.59119	-1223.35852	973.22504	1635.83618	-1442.95398	1027.04675	1474.26392	-1441.30566	1032.53833	1589.5481	-1281.76221	659.56775	1329.16907	-1279.32544	479.32236	1345.53455	-1427.96912	370.94116	1347.76758	-1566.04187	196.58389	1372.87061	-1603.69507	190.11604	1429.95593	-1478.4104	72.55836	1341.91895	-1288.21826	674.71509	1723.27539	-1274.76074	463.13034	1694.08154	-1320.97058	280.67068	1713.22729	-1345.94507	86.87846	1687.14502	-1384.48523	29.9386	1637.88477	-1193.8363	32.0234	1695.39502	-1266.80652	1796.3269	1557.03638	2846.28223	1034.2561	-3356.94873	NaN	NaN	NaN
4	0.03	-1161.65247	1715.19678	1479.0011	-1177.073	1701.37244	1623.28796	-1301.25476	1662.02954	1461.77441	-1328.36475	1647.2915	1602.3053	-1382.95068	1524.35779	1536.50305	-1443.25867	1246.3772	1535.36548	-1246.82532	1452.8584	1522.39368	-1197.87	1281.44714	1523.32544	-1446.3385	1345.97534	1597.09167	-1320.95764	1501.43909	1356.37585	-1332.06384	1305.83215	1264.76685	-1323.33081	1164.53247	1238.73889	-1264.87292	1042.73547	1231.75903	-1163.07104	956.48676	1264.77869	-1207.54456	935.38824	1238.21985	-1163.65369	890.86438	1227.28259	-1311.12805	1483.00806	1719.65894	-1357.03308	1299.02991	1808.74219	-1354.60364	1154.47278	1834.58484	-1330.47473	1039.63928	1863.69482	-1281.36951	912.95697	1858.08093	-1330.87708	909.41992	1881.46899	-1293.62769	849.11047	1895.04358	-1234.78442	977.30396	1385.0072	-1216.69409	973.72131	1639.28906	-1433.86328	1028.84546	1478.25378	-1432.76001	1033.7467	1593.46826	-1268.07727	663.19135	1331.47375	-1261.97473	483.26242	1348.38538	-1408.92004	373.08221	1353.70532	-1543.20483	195.61745	1380.66296	-1580.48071	187.41251	1437.81006	-1453.39246	74.13901	1347.77527	-1284.64502	675.31842	1725.91431	-1274.33362	463.35223	1695.9342	-1321.36914	280.5679	1713.82837	-1346.17358	86.88569	1687.22131	-1384.77234	30.14305	1637.78564	-1193.86121	31.81577	1695.32275	-1258.6062	1798.19177	1560.64209	2845.31885	1034.26489	-3360.37964	NaN	NaN	NaN
5	0.04	-1153.43506	1717.31848	1482.01074	-1168.33862	1703.4657	1626.70398	-1292.87939	1663.44043	1465.52905	-1319.3988	1648.79089	1606.22852	-1373.93494	1525.84729	1541.12439	-1434.27246	1247.98059	1540.50061	-1238.19739	1454.38867	1525.97925	-1189.41504	1282.63745	1526.47266	-1436.56641	1347.35388	1602.4845	-1313.21619	1502.82825	1360.58643	-1327.02185	1307.66309	1268.46875	-1320.28857	1166.51477	1241.59729	-1267.50183	1042.51453	1230.61084	-1168.54907	951.30719	1257.52405	-1214.76587	931.96722	1233.57593	-1173.89893	885.58002	1220.42688	-1300.19507	1484.94568	1723.64868	-1343.26538	1300.54419	1813.97961	-1339.32422	1155.81787	1839.20923	-1314.59705	1041.43518	1868.26563	-1265.27466	914.69623	1861.23694	-1314.01245	910.91486	1885.74573	-1276.61426	850.95331	1898.61377	-1225.92529	979.94141	1388.4989	-1210.37097	974.08734	1642.80249	-1424.94934	1030.72156	1482.09863	-1424.15381	1034.76099	1597.19861	-1254.42114	667.09521	1333.5542	-1245.16199	486.83377	1351.1925	-1389.88525	374.24524	1359.75537	-1519.68372	193.28993	1388.26672	-1556.11694	184.85208	1446.57996	-1427.08423	74.567	1353.87891	-1277.51978	674.71045	1728.35132	-1273.83057	463.24487	1697.52087	-1321.93945	280.67624	1714.67651	-1346.4314	86.86671	1687.37256	-1384.78113	30.09928	1637.78809	-1193.95984	31.7071	1695.23376	-1250.29272	1799.86084	1564.11914	2845.96484	1034.43079	-3357.13403	NaN	NaN	NaN
6	0.05	-1145.3031	1719.07788	1484.94092	-1159.17871	1705.20129	1629.24756	-1284.52759	1664.57764	1469.20642	-1310.33545	1650.12061	1609.96741	-1364.86536	1527.20911	1545.59314	-1425.26196	1249.4646	1545.48779	-1229.33472	1455.70203	1529.47205	-1179.83899	1284.18054	1530.25208	-1427.05554	1349.04626	1607.91943	-1305.34851	1504.02271	1364.63379	-1321.4248	1309.11072	1271.94043	-1317.2666	1168.58069	1244.22339	-1269.68201	1042.52588	1229.95386	-1174.3064	946.45844	1250.91797	-1222.80237	929.67035	1229.13647	-1185.15173	881.43707	1213.74438	-1289.28223	1486.69885	1727.44934	-1329.49609	1301.98425	1818.90039	-1324.28748	1157.49072	1843.81787	-1298.36755	1043.05933	1872.07446	-1248.92053	916.31659	1864.08569	-1297.03284	912.51489	1890.01233	-1259.10364	852.68677	1901.9137	-1216.44373	982.7265	1392.50696	-1199.15845	975.55853	1647.88147	-1416.005	1032.4613	1485.80334	-1415.552	1035.75305	1600.72681	-1240.6438	670.71783	1335.38416	-1228.703	489.97128	1353.99609	-1370.82117	374.22079	1365.54309	-1495.32507	189.83972	1395.69043	-1531.19482	180.05656	1454.15881	-1399.77905	74.21687	1359.89331	-1273.46924	674.52594	1730.55627	-1273.30725	463.24152	1699.01599	-1322.30579	280.80988	1715.43811	-1346.60291	86.78365	1687.59973	-1384.97241	30.30448	1637.86975	-1194.1709	31.75612	1695.22107	-1241.98047	1801.37109	1567.38354	NaN	NaN	NaN	NaN	NaN	NaN
7	0.06	-1137.05676	1720.74573	1487.79565	-1150.23633	1706.8219	1632.11914	-1276.36316	1665.74585	1472.63354	-1301.27942	1651.24988	1613.59302	-1355.79846	1528.33142	1549.8717	-1416.22827	1250.80798	1550.40747	-1220.75757	1456.89038	1532.7959	-1170.92981	1285.3667	1533.35828	-1417.39331	1350.71094	1613.34839	-1297.36353	1504.9906	1368.54285	-1315.51929	1310.77856	1275.36121	-1314.39746	1170.65002	1246.66162	-1272.51733	1042.91772	1228.94067	-1181.3457	941.89978	1244.17004	-1231.25183	928.1806	1225.01172	-1196.17834	877.48376	1207.75342	-1278.48743	1488.24133	1731.12134	-1315.81506	1303.2959	1823.5459	-1308.96143	1158.5498	1848.047	-1282.08728	1044.45764	1875.91016	-1232.19385	917.63916	1866.81116	-1280.005	914.32281	1894.24292	-1241.34509	854.24365	1905.11401	-1207.16772	985.50757	1396.67957	-1193.62671	974.92969	1651.3501	-1407.04895	1034.03406	1489.28259	-1406.87854	1036.4635	1604.14746	-1226.3446	673.85779	1337.3418	-1212.50281	492.78928	1356.7998	-1351.57202	372.96695	1370.86096	-1470.03931	185.2034	1402.89038	-1505.05811	174.53896	1461.96448	-1371.36157	73.13293	1365.99548	-1269.78625	674.35132	1732.46692	-1272.53088	462.85284	1700.18604	-1322.32324	280.89749	1716.26416	-1346.79688	86.92241	1687.75281	-1385.09692	30.36616	1637.86731	-1194.35974	31.75142	1695.23206	-1233.76355	1802.75085	1570.58276	2846.15356	1034.29199	-3357.01294	NaN	NaN	NaN
8	0.07	-1128.9248	1722.62488	1490.84827	-1141.02393	1707.96997	1634.49585	-1268.04614	1666.73315	1476.01355	-1292.19971	1652.18481	1617.11548	-1346.60205	1529.21765	1553.95605	-1407.10693	1251.8573	1555.14185	-1211.17322	1457.6958	1536.04602	-1161.49353	1286.34155	1536.96069	-1407.74841	1351.91943	1618.34741	-1289.27527	1505.76868	1372.30627	-1309.56653	1311.99329	1278.57483	-1311.31799	1172.62817	1249.01477	-1275.65808	1043.71362	1227.9386	-1188.60303	938.38269	1238.29358	-1239.72046	927.11041	1220.95398	-1207.87024	875.06793	1202.1272	-1267.71704	1489.52124	1734.62878	-1302.17224	1304.33228	1828.06116	-1293.8783	1159.849	1852.18933	-1265.01123	1045.46289	1878.80737	-1215.37866	919.03448	1869.55371	-1262.54016	915.70258	1898.16333	-1223.37781	855.78943	1908.29187	-1197.53577	988.14941	1401.07874	-1183.15991	975.80499	1656.22314	-1398.11938	1035.50549	1492.55957	-1398.09802	1037.13232	1607.37036	-1212.57458	677.29834	1338.92969	-1196.57104	495.20267	1359.6084	-1332.20947	370.90945	1375.68396	-1444.19971	179.99834	1410.00244	-1477.88123	168.33553	1469.6698	-1341.99426	71.57658	1371.90002	-1266.23462	674.27203	1734.14209	-1271.31409	462.81339	1701.39978	-1321.84302	280.90329	1716.92346	-1346.90649	87.04766	1687.87097	-1385.05139	30.40951	1637.80359	-1194.41077	31.7082	1695.24158	-1225.32214	1803.79785	1573.63379	NaN	NaN	NaN	NaN	NaN	NaN
